<svg width="40" height="40" viewBox="0 0 40 40" fill="none" xmlns="http://www.w3.org/2000/svg">
<rect width="40" height="40" rx="20" fill="#F2F2F2" fill-opacity="0.05"/>
<g clip-path="url(#clip0_0_270)">
<path d="M23.75 12.5H16.25C14.1789 12.5 12.5 14.1789 12.5 16.25V23.75C12.5 25.8211 14.1789 27.5 16.25 27.5H23.75C25.8211 27.5 27.5 25.8211 27.5 23.75V16.25C27.5 14.1789 25.8211 12.5 23.75 12.5Z" stroke="#F2F2F2" stroke-width="1.5" stroke-linecap="round" stroke-linejoin="round"/>
<path d="M23 19.5277C23.0926 20.1519 22.986 20.7894 22.6953 21.3495C22.4047 21.9096 21.9449 22.3638 21.3812 22.6475C20.8176 22.9312 20.1789 23.0299 19.5559 22.9297C18.9329 22.8294 18.3573 22.5353 17.9112 22.0891C17.465 21.6429 17.1708 21.0674 17.0706 20.4444C16.9703 19.8214 17.0691 19.1826 17.3528 18.619C17.6365 18.0554 18.0907 17.5955 18.6508 17.3049C19.2109 17.0143 19.8483 16.9077 20.4725 17.0002C21.1092 17.0946 21.6987 17.3913 22.1538 17.8465C22.6089 18.3016 22.9056 18.891 23 19.5277Z" stroke="#F2F2F2" stroke-width="1.5" stroke-linecap="round" stroke-linejoin="round"/>
<path d="M24.125 15.875H24.1325" stroke="#F2F2F2" stroke-width="1.5" stroke-linecap="round" stroke-linejoin="round"/>
</g>
<defs>
<clipPath id="clip0_0_270">
<rect width="18" height="18" fill="white" transform="translate(11 11)"/>
</clipPath>
</defs>
</svg>
