<svg width="174" height="47" viewBox="0 0 174 47" fill="none" xmlns="http://www.w3.org/2000/svg">
<path d="M159.01 9.02385C166.812 8.57066 173.508 14.5207 173.974 22.3217C174.44 30.1226 168.502 36.8277 160.701 37.3067C152.881 37.7868 146.157 31.8309 145.689 24.0116C145.222 16.1923 151.19 9.47811 159.01 9.02385ZM160.998 30.9606C161.959 30.7792 162.549 30.5804 163.347 29.934C167.191 26.8161 166.804 16.1956 161.052 15.3487C160.463 15.262 159.547 15.2762 158.922 15.3351C154.037 16.0294 153.418 21.5854 154.004 25.5675C154.543 29.2202 157.014 31.5636 160.8 30.992C160.866 30.982 160.932 30.9716 160.998 30.9606Z" fill="black"/>
<path d="M46.1455 9.02791C53.9349 8.56918 60.6283 14.496 61.1152 22.2831C61.6021 30.0702 55.6991 36.7845 47.9133 37.2995C40.0874 37.8171 33.3308 31.8777 32.8413 24.0507C32.3519 16.2237 38.3162 9.489 46.1455 9.02791ZM48.1253 30.9612C51.4829 30.3477 52.7153 27.35 52.969 24.2435C53.3338 19.7766 51.5215 14.471 46.0502 15.3354C44.6148 15.5519 43.2911 16.1988 42.4828 17.4348C39.4741 22.0357 40.5266 32.1676 47.944 30.9917C48.0045 30.982 48.065 30.9719 48.1253 30.9612Z" fill="black"/>
<path d="M0.00400922 9.76661C8.66334 7.53389 12.7634 11.9386 14.7753 19.8248C14.8637 20.1635 14.9355 20.5062 14.9906 20.8517C16.0479 16.8688 17.2372 12.7351 21.0723 10.4049C22.9614 9.25715 25.5897 8.92638 27.7718 9.22844C28.4684 9.32488 29.3559 9.64274 30.0362 9.74409L30.0399 36.5909C29.2589 36.5884 22.5579 36.6251 22.4135 36.5069L22.4019 36.378C22.4519 34.8694 22.3882 32.9083 22.3869 31.3578L22.3892 20.8662C19.5932 23.7176 17.8949 28.1733 17.3668 32.0818L15.1264 32.071L14.9244 32.1067C14.1535 32.0533 13.455 32.0693 12.6848 32.0813C11.8837 27.6063 10.7913 24.3843 7.67604 20.9022L7.6649 36.369L7.62517 36.567C5.34501 36.6995 2.36588 36.5497 0 36.591L0.00400922 9.76661Z" fill="#1553DC"/>
<path d="M7.66502 36.3686C6.82962 32.9107 4.95696 18.8787 6.18105 16.0616C6.30854 15.7684 6.51024 15.4486 6.82374 15.3302C7.06473 15.2392 7.32265 15.2757 7.55286 15.38C10.3065 16.6273 13.4864 23.8286 14.1062 26.7553C14.4998 28.6139 14.2038 30.2096 14.9245 32.1062C14.1536 32.0529 13.4551 32.0688 12.685 32.0808C11.8838 27.6058 10.7914 24.3839 7.67616 20.9018L7.66502 36.3686Z" fill="black"/>
<path d="M15.1265 32.0706C15.8916 30.4575 15.7031 27.8216 16.1126 25.9936C16.6666 23.5205 20.1036 16.2144 22.5276 15.3617C22.792 15.2687 23.0516 15.2509 23.3086 15.3745C23.6572 15.5422 23.8345 15.9158 23.9517 16.2654C25.1704 19.903 23.0524 32.0824 22.4019 36.3776C22.452 34.869 22.3883 32.9079 22.3869 31.3574L22.3892 20.8659C19.5933 23.7172 17.8949 28.1729 17.3668 32.0814L15.1265 32.0706Z" fill="black"/>
<path d="M64.2381 9.78799L71.6726 9.78363C75.7381 9.7834 80.9078 9.4942 84.4739 11.7278C86.2049 12.8112 87.4335 14.5395 87.8878 16.5306C88.0607 17.2943 88.1052 17.9723 88.1453 18.746C88.4135 23.8234 85.6517 27.0522 80.7271 28.1512C83.0933 29.3315 85.0218 30.2509 87.6651 30.5361L87.658 37.1692C83.5433 36.3434 78.8823 34.225 75.2901 32.1018C74.7712 31.7951 73.6181 31.1197 73.1848 30.747L73.1922 23.8373C76.6912 24.9357 80.271 24.0631 80.3451 19.8084C80.4254 15.1849 75.0962 15.7315 71.8336 15.7535V36.5295L64.2377 36.5261C64.208 35.3764 64.2106 34.2026 64.2196 33.0512C64.2799 25.3047 64.1268 17.5319 64.2381 9.78799Z" fill="black"/>
<path d="M91.4825 9.78765L100.577 9.78222C105.354 9.78212 110.534 9.53576 113.701 14.0143C116.748 18.3234 115.967 25.6314 111.426 28.67C107.91 31.0233 104.37 30.7014 100.437 30.0237L100.442 24.0329C102.351 24.7142 104.392 24.7829 106.132 23.6662C107.958 22.4648 108.214 18.5856 106.657 17.1457C104.853 15.4763 101.378 15.7328 99.0605 15.7637L99.0659 36.5253L91.4879 36.5258C91.4086 33.3291 91.4727 29.8564 91.4727 26.642L91.4825 9.78765Z" fill="black"/>
<path d="M135.012 9.78755L142.651 9.78656L142.656 36.5277L135.092 36.528C134.922 36.3003 135.001 24.6211 135.002 23.2812C132.814 23.1973 129.872 23.2365 127.679 23.2858L127.68 17.339C130.058 17.2843 132.612 17.3324 135.004 17.3335C134.993 14.8182 134.996 12.3028 135.012 9.78755Z" fill="black"/>
<path d="M118.671 9.78764L126.273 9.78656C126.341 13.2774 126.286 16.9413 126.287 20.4431L126.273 36.5322C123.773 36.4966 121.181 36.5277 118.674 36.5259C118.535 27.7636 118.657 18.5752 118.671 9.78764Z" fill="black"/>
</svg>
