<svg width="174" height="29" viewBox="0 0 174 29" fill="none" xmlns="http://www.w3.org/2000/svg">
<path d="M159.01 0.0242617C166.812 -0.428931 173.508 5.52116 173.974 13.3221C174.44 21.1231 168.502 27.8281 160.701 28.3071C152.881 28.7872 146.157 22.8313 145.689 15.012C145.222 7.19276 151.19 0.478524 159.01 0.0242617ZM160.998 21.9611C161.959 21.7796 162.549 21.5809 163.347 20.9344C167.191 17.8166 166.804 7.19606 161.052 6.34911C160.463 6.26241 159.547 6.27657 158.922 6.33555C154.037 7.02976 153.418 12.5858 154.004 16.5679C154.543 20.2206 157.014 22.564 160.8 21.9924C160.866 21.9824 160.932 21.972 160.998 21.9611Z" fill="white"/>
<path d="M46.1454 0.0283482C53.9348 -0.430386 60.6282 5.49642 61.1152 13.2835C61.602 21.0706 55.699 27.7849 47.9132 28.2999C40.0874 28.8176 33.3307 22.8781 32.8413 15.0512C32.3519 7.22415 38.3161 0.489434 46.1454 0.0283482ZM48.1252 21.9616C51.4829 21.3481 52.7152 18.3505 52.969 15.244C53.3337 10.7771 51.5214 5.47145 46.0502 6.3358C44.6147 6.55237 43.2911 7.19921 42.4827 8.43524C39.4741 13.0361 40.5265 23.168 47.9439 21.9921C48.0044 21.9825 48.0649 21.9723 48.1252 21.9616Z" fill="white"/>
<path d="M0.00400922 0.766971C8.66334 -1.46575 12.7634 2.93901 14.7753 10.8251C14.8637 11.1638 14.9355 11.5065 14.9906 11.8521C16.0479 7.86917 17.2372 3.73544 21.0723 1.40526C22.9614 0.257504 25.5897 -0.0732618 27.7718 0.228802C28.4684 0.325234 29.3559 0.643101 30.0362 0.744451L30.0399 27.5912C29.2589 27.5887 22.5579 27.6254 22.4135 27.5072L22.4019 27.3783C22.4519 25.8698 22.3882 23.9087 22.3869 22.3581L22.3892 11.8666C19.5932 14.718 17.8949 19.1737 17.3668 23.0822L15.1264 23.0713L14.9244 23.107C14.1535 23.0537 13.455 23.0696 12.6848 23.0816C11.8837 18.6066 10.7913 15.3847 7.67604 11.9026L7.6649 27.3694L7.62517 27.5673C5.34501 27.6998 2.36588 27.5501 0 27.5914L0.00400922 0.766971Z" fill="#1553DC"/>
<path d="M7.66502 27.369C6.82962 23.9112 4.95696 9.87913 6.18105 7.06207C6.30854 6.7688 6.51024 6.44899 6.82374 6.33061C7.06473 6.23965 7.32265 6.27617 7.55286 6.38043C10.3065 7.62773 13.4864 14.829 14.1062 17.7558C14.4998 19.6143 14.2038 21.2101 14.9245 23.1066C14.1536 23.0533 13.4551 23.0692 12.685 23.0813C11.8838 18.6063 10.7914 15.3843 7.67616 11.9022L7.66502 27.369Z" fill="black"/>
<path d="M15.1265 23.071C15.8916 21.458 15.7031 18.822 16.1126 16.9941C16.6666 14.521 20.1036 7.21486 22.5276 6.3622C22.792 6.26921 23.0516 6.25136 23.3086 6.375C23.6572 6.54272 23.8345 6.91625 23.9517 7.26591C25.1704 10.9035 23.0524 23.0829 22.4019 27.378C22.452 25.8695 22.3883 23.9084 22.3869 22.3578L22.3892 11.8663C19.5933 14.7177 17.8949 19.1734 17.3668 23.0819L15.1265 23.071Z" fill="black"/>
<path d="M64.2381 0.788436L71.6726 0.78408C75.7381 0.783848 80.9078 0.494649 84.4739 2.72821C86.2049 3.81168 87.4335 5.53993 87.8878 7.53108C88.0607 8.29479 88.1052 8.97271 88.1453 9.74649C88.4135 14.8239 85.6517 18.0527 80.7271 19.1516C83.0933 20.332 85.0218 21.2513 87.6651 21.5366L87.658 28.1696C83.5433 27.3439 78.8823 25.2255 75.2901 23.1023C74.7712 22.7956 73.6181 22.1201 73.1848 21.7474L73.1922 14.8378C76.6912 15.9362 80.271 15.0635 80.3451 10.8089C80.4254 6.18535 75.0962 6.73197 71.8336 6.75393V27.5299L64.2377 27.5265C64.208 26.3768 64.2106 25.2031 64.2196 24.0517C64.2799 16.3052 64.1268 8.53238 64.2381 0.788436Z" fill="white"/>
<path d="M91.4826 0.788154L100.577 0.78272C105.354 0.782622 110.534 0.536262 113.701 5.01482C116.748 9.32393 115.967 16.6319 111.426 19.6705C107.91 22.0238 104.37 21.7019 100.437 21.0242L100.442 15.0335C102.351 15.7147 104.392 15.7834 106.133 14.6667C107.958 13.4653 108.214 9.5861 106.657 8.14625C104.853 6.47679 101.378 6.73334 99.0606 6.76417L99.0659 27.5258L91.488 27.5263C91.4087 24.3296 91.4728 20.8569 91.4728 17.6425L91.4826 0.788154Z" fill="white"/>
<path d="M135.012 0.788098L142.651 0.787109L142.656 27.5282L135.092 27.5286C134.922 27.3009 135.001 15.6217 135.002 14.2818C132.814 14.1979 129.872 14.2371 127.679 14.2863L127.68 8.3395C130.058 8.28481 132.612 8.33291 135.004 8.33407C134.993 5.81877 134.996 3.3034 135.012 0.788098Z" fill="white"/>
<path d="M118.671 0.788187L126.273 0.787109C126.341 4.27792 126.286 7.94187 126.287 11.4436L126.273 27.5328C123.773 27.4971 121.181 27.5282 118.674 27.5265C118.535 18.7641 118.657 9.57575 118.671 0.788187Z" fill="white"/>
</svg>
